<svg width="301" height="210" viewBox="0 0 301 210" fill="none" xmlns="http://www.w3.org/2000/svg">
  <g filter="url(#filter0_g_24_144)">
    <path d="M104.404 180.55L105.666 178.967L104.404 180.55ZM296.438 184.896C296.821 183.845 296.279 182.683 295.229 182.3L278.104 176.063C277.053 175.68 275.891 176.222 275.508 177.273C275.126 178.323 275.667 179.486 276.718 179.868L291.94 185.413L286.395 200.634C286.013 201.685 286.554 202.847 287.605 203.23C288.656 203.613 289.818 203.071 290.201 202.02L296.438 184.896ZM8.11429 4.38269L6.11681 4.04995C-2.52334 55.9185 17.2182 96.826 41.3294 126.524C65.3895 156.16 94.0156 174.859 103.142 182.134L104.404 180.55L105.666 178.967C96.2022 171.423 68.1683 153.157 44.4736 123.971C20.83 94.8491 1.72183 55.0818 10.1118 4.71543L8.11429 4.38269ZM104.404 180.55L103.142 182.134C108.081 186.071 117.532 190.589 130.001 194.583C142.533 198.598 158.296 202.141 175.997 204.034C211.384 207.818 254.662 205.019 295.391 186.038L294.536 184.203L293.68 182.368C253.797 200.954 211.305 203.737 176.427 200.007C158.995 198.143 143.502 194.656 131.237 190.727C118.909 186.777 110.023 182.439 105.666 178.967L104.404 180.55Z" fill="white"/>
  </g>
  <defs>
    <filter id="filter0_g_24_144" x="-1.23978e-05" y="-7.34329e-05" width="300.611" height="209.539" filterUnits="userSpaceOnUse" color-interpolation-filters="sRGB">
      <feFlood flood-opacity="0" result="BackgroundImageFix"/>
      <feBlend mode="normal" in="SourceGraphic" in2="BackgroundImageFix" result="shape"/>
      <feTurbulence type="fractalNoise" baseFrequency="0.44893375039100647 0.44893375039100647" numOctaves="3" seed="3300" />
      <feDisplacementMap in="shape" scale="8.1000003814697266" xChannelSelector="R" yChannelSelector="G" result="displacedImage" width="100%" height="100%" />
      <feMerge result="effect1_texture_24_144">
        <feMergeNode in="displacedImage"/>
      </feMerge>
    </filter>
  </defs>
</svg>


